<svg width="122" height="112" viewBox="0 0 122 112" fill="none" xmlns="http://www.w3.org/2000/svg">
<path fill-rule="evenodd" clip-rule="evenodd" d="M57 99.9889C56.6676 99.9963 56.3342 100 56 100C31.6995 100 12 80.3005 12 56C12 31.6995 31.6995 12 56 12C56.3342 12 56.6676 12.0037 57 12.0111V0.00874914C56.6674 0.00292445 56.334 0 56 0C25.0721 0 0 25.0721 0 56C0 86.9279 25.0721 112 56 112C56.334 112 56.6674 111.997 57 111.991V99.9889Z" fill="#3C4A5E"/>
<path fill-rule="evenodd" clip-rule="evenodd" d="M64.9999 33.0083C65.2076 33.0028 65.416 33 65.625 33C78.3275 33 88.625 43.2975 88.625 56C88.625 68.7026 78.3275 79 65.625 79C65.416 79 65.2076 78.9972 64.9999 78.9917L64.9999 90.9945C65.2079 90.9982 65.4162 91 65.625 91C84.955 91 100.625 75.33 100.625 56C100.625 36.67 84.955 21 65.625 21C65.4162 21 65.2078 21.0018 64.9999 21.0055L64.9999 33.0083Z" fill="#62748E"/>
<path fill-rule="evenodd" clip-rule="evenodd" d="M65.0001 12.0111C65.3301 12.0037 65.6609 12 65.9926 12C90.0606 12 109.572 31.5109 109.572 55.5789C109.572 79.6469 90.0606 99.1578 65.9926 99.1578C65.6609 99.1578 65.3301 99.1541 65.0001 99.1468L65.0001 111.149C65.3303 111.155 65.6611 111.158 65.9926 111.158C96.688 111.158 121.572 86.2743 121.572 55.5789C121.572 24.8835 96.688 4.45212e-08 65.9926 2.728e-06C65.6611 2.75698e-06 65.3302 0.00290196 65.0001 0.00868507L65.0001 12.0111Z" fill="#3C4A5E"/>
<path d="M52 104V56H30" stroke="#3C4A5E" stroke-width="10"/>
</svg>
